<svg width="48" height="48" viewBox="0 0 48 48" fill="none" xmlns="http://www.w3.org/2000/svg">
<path d="M24 14.6673C29.3333 9.33398 31.3333 9.33398 38 9.33398ZM24 37.334C28.614 33.334 31.3333 32.0007 38 32.0007ZM38 32.0007V9.33398ZM24 14.6673C24.1715 20.4803 24 37.334 24 37.334Z" stroke="black" stroke-width="2" stroke-linecap="round" stroke-linejoin="round"/>
<path d="M39.281 13.089C40.127 13.0283 41.0286 13 41.9998 13V36C35.3332 36 30.7805 35.8333 26.1665 39.8333" stroke="black" stroke-width="2" stroke-linecap="round" stroke-linejoin="round"/>
<path d="M24 14.6673C18.6667 9.33398 16.6667 9.33398 10 9.33398ZM24 37.334C19.386 33.334 16.6667 32.0007 10 32.0007ZM10 32.0007V9.33398ZM24 14.6673C23.8285 20.4803 24 37.334 24 37.334Z" stroke="black" stroke-width="2" stroke-linecap="round" stroke-linejoin="round"/>
<path d="M21.8335 39.834C23.0535 40.4066 24.8917 40.5185 26.1668 39.834" stroke="black" stroke-width="2"/>
<path d="M8.71881 13.089C7.87288 13.0283 6.97126 13 6 13V36C12.6667 36 17.2193 35.8333 21.8333 39.8333" stroke="black" stroke-width="2" stroke-linecap="round" stroke-linejoin="round"/>
</svg>
